<?xml version="1.0" encoding="UTF-8"?><svg xmlns="http://www.w3.org/2000/svg" xmlns:xlink="http://www.w3.org/1999/xlink" fill-opacity="1" color-rendering="auto" color-interpolation="auto" text-rendering="auto" stroke="black" stroke-linecap="square" width="697" stroke-miterlimit="10" shape-rendering="auto" stroke-opacity="1" fill="black" stroke-dasharray="none" font-weight="normal" stroke-width="1" height="615" font-family="'Dialog'" font-style="normal" stroke-linejoin="miter" font-size="12px" stroke-dashoffset="0" image-rendering="auto">
  <!--Generated by ySVG 2.5-->
  <defs id="genericDefs"/>
  <g>
    <defs id="defs1">
      <clipPath clipPathUnits="userSpaceOnUse" id="clipPath1">
        <path d="M0 0 L697 0 L697 615 L0 615 L0 0 Z"/>
      </clipPath>
      <clipPath clipPathUnits="userSpaceOnUse" id="clipPath2">
        <path d="M185 -30 L882 -30 L882 585 L185 585 L185 -30 Z"/>
      </clipPath>
    </defs>
    <g fill="white" text-rendering="geometricPrecision" shape-rendering="geometricPrecision" transform="translate(-185,30)" stroke="white">
      <rect x="185" width="697" height="615" y="-30" clip-path="url(#clipPath2)" stroke="none"/>
    </g>
    <g text-rendering="geometricPrecision" stroke-miterlimit="1.45" shape-rendering="geometricPrecision" transform="matrix(1,0,0,1,-185,30)" stroke-linecap="butt">
      <rect x="200" y="4" clip-path="url(#clipPath2)" fill="none" width="180" rx="20" ry="20" height="40"/>
      <text x="247.6865" xml:space="preserve" y="28.7139" clip-path="url(#clipPath2)" font-family="sans-serif" stroke="none">Начало LevMat</text>
    </g>
    <g text-rendering="geometricPrecision" stroke-miterlimit="1.45" shape-rendering="geometricPrecision" transform="matrix(1,0,0,1,-185,30)" stroke-linecap="butt">
      <path fill="none" d="M200 120.3537 L380 120.3537 L380 160.3537 L200 160.3537 Z" clip-path="url(#clipPath2)"/>
      <text x="266.9844" xml:space="preserve" y="145.0676" clip-path="url(#clipPath2)" font-family="sans-serif" stroke="none">i:=1, j:=1</text>
    </g>
    <g text-rendering="geometricPrecision" stroke-miterlimit="1.45" shape-rendering="geometricPrecision" transform="matrix(1,0,0,1,-185,30)" stroke-linecap="butt">
      <path fill="none" d="M427.0611 -14.3916 L410 -14.3916 L410 62.3916 L427.0611 62.3916" clip-path="url(#clipPath2)"/>
      <text x="433.3643" xml:space="preserve" y="14.0127" clip-path="url(#clipPath2)" font-family="sans-serif" stroke="none">Функция LevMat</text>
      <text x="422.3546" xml:space="preserve" y="28.7139" clip-path="url(#clipPath2)" font-family="sans-serif" stroke="none">Принимает на вход:</text>
      <text x="442.2208" xml:space="preserve" y="43.415" clip-path="url(#clipPath2)" font-family="sans-serif" stroke="none">s1, s2, n1, n2</text>
    </g>
    <g text-rendering="geometricPrecision" stroke-miterlimit="1.45" shape-rendering="geometricPrecision" transform="matrix(1,0,0,1,-185,30)" stroke-linecap="butt">
      <path fill="none" d="M210.2 62.1768 L380 62.1768 L369.8 102.1768 L200 102.1768 Z" clip-path="url(#clipPath2)"/>
      <text x="222.7578" xml:space="preserve" y="79.5401" clip-path="url(#clipPath2)" font-family="sans-serif" stroke="none">Создание матрицы matr</text>
      <text x="222.626" xml:space="preserve" y="94.2413" clip-path="url(#clipPath2)" font-family="sans-serif" stroke="none">размером (n1+1)x(n2+1)</text>
    </g>
    <g text-rendering="geometricPrecision" stroke-miterlimit="1.45" shape-rendering="geometricPrecision" transform="matrix(1,0,0,1,-185,30)" stroke-linecap="butt">
      <path fill="none" d="M210 178.4268 L370 178.4268 L380 188.4268 L380 218.4268 L200 218.4268 L200 188.4268 Z" clip-path="url(#clipPath2)"/>
      <text x="239.2432" xml:space="preserve" y="195.7901" clip-path="url(#clipPath2)" font-family="sans-serif" stroke="none">Цикл по столбцам</text>
      <text x="249.4648" xml:space="preserve" y="210.4913" clip-path="url(#clipPath2)" font-family="sans-serif" stroke="none">1 &lt;= j &lt;= n1+1 </text>
    </g>
    <g text-rendering="geometricPrecision" stroke-miterlimit="1.45" shape-rendering="geometricPrecision" transform="matrix(1,0,0,1,-185,30)" stroke-linecap="butt">
      <path fill="none" d="M200 236.5 L380 236.5 L380 276.5 L200 276.5 Z" clip-path="url(#clipPath2)"/>
      <text x="251.4893" xml:space="preserve" y="261.2139" clip-path="url(#clipPath2)" font-family="sans-serif" stroke="none">matr[1][j] := j-1</text>
    </g>
    <g text-rendering="geometricPrecision" stroke-miterlimit="1.45" shape-rendering="geometricPrecision" transform="matrix(1,0,0,1,-185,30)" stroke-linecap="butt">
      <path fill="none" d="M200 294.5732 L380 294.5732 L380 324.5732 L370 334.5732 L210 334.5732 L200 324.5732 Z" clip-path="url(#clipPath2)"/>
      <text x="255.1631" xml:space="preserve" y="311.9364" clip-path="url(#clipPath2)" font-family="sans-serif" stroke="none">Конец цикла</text>
      <text x="253.1592" xml:space="preserve" y="326.6376" clip-path="url(#clipPath2)" font-family="sans-serif" stroke="none"> по столбцам</text>
    </g>
    <g text-rendering="geometricPrecision" stroke-miterlimit="1.45" shape-rendering="geometricPrecision" transform="matrix(1,0,0,1,-185,30)" stroke-linecap="butt">
      <path fill="none" d="M210 352.6463 L370 352.6463 L380 362.6463 L380 392.6463 L200 392.6463 L200 362.6463 Z" clip-path="url(#clipPath2)"/>
      <text x="243.6553" xml:space="preserve" y="370.0096" clip-path="url(#clipPath2)" font-family="sans-serif" stroke="none">Цикл по строкам</text>
      <text x="249.4648" xml:space="preserve" y="384.7108" clip-path="url(#clipPath2)" font-family="sans-serif" stroke="none">1 &lt;= i &lt;= n2+1 </text>
    </g>
    <g text-rendering="geometricPrecision" stroke-miterlimit="1.45" shape-rendering="geometricPrecision" transform="matrix(1,0,0,1,-185,30)" stroke-linecap="butt">
      <path fill="none" d="M200 410.7195 L380 410.7195 L380 450.7195 L200 450.7195 Z" clip-path="url(#clipPath2)"/>
      <text x="251.4893" xml:space="preserve" y="435.4333" clip-path="url(#clipPath2)" font-family="sans-serif" stroke="none">matr[i][1] := i-1</text>
    </g>
    <g text-rendering="geometricPrecision" stroke-miterlimit="1.45" shape-rendering="geometricPrecision" transform="matrix(1,0,0,1,-185,30)" stroke-linecap="butt">
      <path fill="none" d="M200 468.7926 L380 468.7926 L380 498.7926 L370 508.7926 L210 508.7926 L200 498.7926 Z" clip-path="url(#clipPath2)"/>
      <text x="255.1631" xml:space="preserve" y="486.1559" clip-path="url(#clipPath2)" font-family="sans-serif" stroke="none">Конец цикла</text>
      <text x="257.5713" xml:space="preserve" y="500.8571" clip-path="url(#clipPath2)" font-family="sans-serif" stroke="none"> по строкам</text>
    </g>
    <g text-rendering="geometricPrecision" stroke-miterlimit="1.45" shape-rendering="geometricPrecision" transform="matrix(1,0,0,1,-185,30)" stroke-linecap="butt">
      <path fill="none" d="M536.4884 119.3415 L696.4884 119.3415 L706.4884 129.3415 L706.4884 159.3415 L526.4884 159.3415 L526.4884 129.3415 Z" clip-path="url(#clipPath2)"/>
      <text x="565.7316" xml:space="preserve" y="136.7048" clip-path="url(#clipPath2)" font-family="sans-serif" stroke="none">Цикл по столбцам</text>
      <text x="575.9532" xml:space="preserve" y="151.4059" clip-path="url(#clipPath2)" font-family="sans-serif" stroke="none">1 &lt;= j &lt;= n1+1 </text>
    </g>
    <g text-rendering="geometricPrecision" stroke-miterlimit="1.45" shape-rendering="geometricPrecision" transform="matrix(1,0,0,1,-185,30)" stroke-linecap="butt">
      <path fill="none" d="M536.4884 62.1768 L696.4884 62.1768 L706.4884 72.1768 L706.4884 102.1768 L526.4884 102.1768 L526.4884 72.1768 Z" clip-path="url(#clipPath2)"/>
      <text x="570.1437" xml:space="preserve" y="79.5401" clip-path="url(#clipPath2)" font-family="sans-serif" stroke="none">Цикл по строкам</text>
      <text x="575.9532" xml:space="preserve" y="94.2413" clip-path="url(#clipPath2)" font-family="sans-serif" stroke="none">1 &lt;= i &lt;= n2+1 </text>
    </g>
    <g text-rendering="geometricPrecision" stroke-miterlimit="1.45" shape-rendering="geometricPrecision" transform="matrix(1,0,0,1,-185,30)" stroke-linecap="butt">
      <path fill="none" d="M526.4884 452.7555 L706.4884 452.7555 L706.4884 482.7555 L696.4884 492.7555 L536.4884 492.7555 L526.4884 482.7555 Z" clip-path="url(#clipPath2)"/>
      <text x="581.6515" xml:space="preserve" y="470.1187" clip-path="url(#clipPath2)" font-family="sans-serif" stroke="none">Конец цикла</text>
      <text x="584.0597" xml:space="preserve" y="484.8199" clip-path="url(#clipPath2)" font-family="sans-serif" stroke="none"> по строкам</text>
    </g>
    <g text-rendering="geometricPrecision" stroke-miterlimit="1.45" shape-rendering="geometricPrecision" transform="matrix(1,0,0,1,-185,30)" stroke-linecap="butt">
      <path fill="none" d="M526.4884 395.5909 L706.4884 395.5909 L706.4884 425.5909 L696.4884 435.5909 L536.4884 435.5909 L526.4884 425.5909 Z" clip-path="url(#clipPath2)"/>
      <text x="581.6515" xml:space="preserve" y="412.9541" clip-path="url(#clipPath2)" font-family="sans-serif" stroke="none">Конец цикла</text>
      <text x="579.6476" xml:space="preserve" y="427.6553" clip-path="url(#clipPath2)" font-family="sans-serif" stroke="none"> по столбцам</text>
    </g>
    <g text-rendering="geometricPrecision" stroke-miterlimit="1.45" shape-rendering="geometricPrecision" transform="matrix(1,0,0,1,-185,30)" stroke-linecap="butt">
      <path fill="none" d="M616.4884 176.5061 L706.4884 196.5061 L616.4884 216.5061 L526.4884 196.5061 Z" clip-path="url(#clipPath2)"/>
      <text x="576.9728" xml:space="preserve" y="201.22" clip-path="url(#clipPath2)" font-family="sans-serif" stroke="none">s1[j-1] = s2[i-1]</text>
    </g>
    <g text-rendering="geometricPrecision" stroke-miterlimit="1.45" shape-rendering="geometricPrecision" transform="matrix(1,0,0,1,-185,30)" stroke-linecap="butt">
      <path fill="none" d="M435.4055 226.8008 L577.5714 226.8008 L577.5714 266.8008 L435.4055 266.8008 Z" clip-path="url(#clipPath2)"/>
      <text x="484.6359" xml:space="preserve" y="251.5147" clip-path="url(#clipPath2)" font-family="sans-serif" stroke="none">add := 0</text>
    </g>
    <g text-rendering="geometricPrecision" stroke-miterlimit="1.45" shape-rendering="geometricPrecision" transform="matrix(1,0,0,1,-185,30)" stroke-linecap="butt">
      <path fill="none" d="M655.4055 226.8008 L797.5714 226.8008 L797.5714 266.8008 L655.4055 266.8008 Z" clip-path="url(#clipPath2)"/>
      <text x="704.6359" xml:space="preserve" y="251.5147" clip-path="url(#clipPath2)" font-family="sans-serif" stroke="none">add := 1</text>
    </g>
    <g text-rendering="geometricPrecision" stroke-miterlimit="1.45" shape-rendering="geometricPrecision" transform="matrix(1,0,0,1,-185,30)" stroke-linecap="butt">
      <path fill="none" d="M526.4884 296.8008 L706.4884 296.8008 L706.4884 376.8008 L526.4884 376.8008 Z" clip-path="url(#clipPath2)"/>
      <text x="574.9835" xml:space="preserve" y="319.463" clip-path="url(#clipPath2)" font-family="sans-serif" stroke="none">matr[i][j] := min(</text>
      <text x="577.9777" xml:space="preserve" y="334.1641" clip-path="url(#clipPath2)" font-family="sans-serif" stroke="none">matr[i-1][j] + 1,</text>
      <text x="577.9777" xml:space="preserve" y="348.8653" clip-path="url(#clipPath2)" font-family="sans-serif" stroke="none">matr[i][j-1] + 1,</text>
      <text x="565.6378" xml:space="preserve" y="363.5665" clip-path="url(#clipPath2)" font-family="sans-serif" stroke="none">matr[i-1][j-1] + add)</text>
    </g>
    <g text-rendering="geometricPrecision" stroke-miterlimit="1.45" shape-rendering="geometricPrecision" transform="matrix(1,0,0,1,-185,30)" stroke-linecap="butt">
      <rect x="526.4884" y="509.9201" clip-path="url(#clipPath2)" fill="none" width="180" rx="20" ry="20" height="40"/>
      <text x="578.2267" xml:space="preserve" y="534.634" clip-path="url(#clipPath2)" font-family="sans-serif" stroke="none">Конец LevMat</text>
    </g>
    <g text-rendering="geometricPrecision" stroke-miterlimit="1.45" shape-rendering="geometricPrecision" transform="matrix(1,0,0,1,-185,30)" stroke-linecap="butt">
      <path fill="none" d="M747.1848 489.9201 L730.1238 489.9201 L730.1238 569.9201 L747.1848 569.9201" clip-path="url(#clipPath2)"/>
      <text x="753.4881" xml:space="preserve" y="519.9328" clip-path="url(#clipPath2)" font-family="sans-serif" stroke="none">Функция LevMat</text>
      <text x="762.3914" xml:space="preserve" y="534.634" clip-path="url(#clipPath2)" font-family="sans-serif" stroke="none">Возвращает:</text>
      <text x="752.6707" xml:space="preserve" y="549.3351" clip-path="url(#clipPath2)" font-family="sans-serif" stroke="none">matr[n2+1][n1+1]</text>
    </g>
    <g text-rendering="geometricPrecision" stroke-miterlimit="1.45" shape-rendering="geometricPrecision" transform="matrix(1,0,0,1,-185,30)" stroke-linecap="butt">
      <circle fill="none" r="20" clip-path="url(#clipPath2)" cx="290" cy="546.8658"/>
      <text x="285.998" xml:space="preserve" y="551.5797" clip-path="url(#clipPath2)" font-family="sans-serif" stroke="none">A</text>
    </g>
    <g text-rendering="geometricPrecision" stroke-miterlimit="1.45" shape-rendering="geometricPrecision" transform="matrix(1,0,0,1,-185,30)" stroke-linecap="butt">
      <circle fill="none" r="20" clip-path="url(#clipPath2)" cx="616.4884" cy="24"/>
      <text x="612.4865" xml:space="preserve" y="28.7139" clip-path="url(#clipPath2)" font-family="sans-serif" stroke="none">A</text>
    </g>
    <g text-rendering="geometricPrecision" stroke-miterlimit="1.45" stroke-dasharray="6,2" shape-rendering="geometricPrecision" transform="matrix(1,0,0,1,-185,30)" stroke-linecap="butt">
      <path fill="none" d="M380.0318 24 L410.0039 24" clip-path="url(#clipPath2)"/>
    </g>
    <g text-rendering="geometricPrecision" stroke-miterlimit="1.45" shape-rendering="geometricPrecision" transform="matrix(1,0,0,1,-185,30)" stroke-linecap="butt">
      <path fill="none" d="M290 44.0267 L290 54.1704" clip-path="url(#clipPath2)"/>
      <path d="M290 62.1704 L295 50.1704 L290 53.1704 L285 50.1704 Z" clip-path="url(#clipPath2)" stroke="none"/>
      <path fill="none" d="M290 102.2035 L290 112.3472" clip-path="url(#clipPath2)"/>
      <path d="M290 120.3472 L295 108.3472 L290 111.3472 L285 108.3472 Z" clip-path="url(#clipPath2)" stroke="none"/>
      <path fill="none" d="M290 160.3447 L290 170.456" clip-path="url(#clipPath2)"/>
      <path d="M290 178.456 L295 166.456 L290 169.456 L285 166.456 Z" clip-path="url(#clipPath2)" stroke="none"/>
      <path fill="none" d="M290 218.4178 L290 228.5292" clip-path="url(#clipPath2)"/>
      <path d="M290 236.5292 L295 224.5292 L290 227.5292 L285 224.5292 Z" clip-path="url(#clipPath2)" stroke="none"/>
      <path fill="none" d="M290 276.491 L290 286.6024" clip-path="url(#clipPath2)"/>
      <path d="M290 294.6024 L295 282.6024 L290 285.6024 L285 282.6024 Z" clip-path="url(#clipPath2)" stroke="none"/>
      <path fill="none" d="M290 334.5641 L290 344.6755" clip-path="url(#clipPath2)"/>
      <path d="M290 352.6755 L295 340.6755 L290 343.6755 L285 340.6755 Z" clip-path="url(#clipPath2)" stroke="none"/>
      <path fill="none" d="M290 392.6373 L290 402.7487" clip-path="url(#clipPath2)"/>
      <path d="M290 410.7487 L295 398.7487 L290 401.7487 L285 398.7487 Z" clip-path="url(#clipPath2)" stroke="none"/>
      <path fill="none" d="M290 450.7105 L290 460.8218" clip-path="url(#clipPath2)"/>
      <path d="M290 468.8218 L295 456.8218 L290 459.8218 L285 456.8218 Z" clip-path="url(#clipPath2)" stroke="none"/>
      <path fill="none" d="M616.4884 102.19 L616.4884 111.3508" clip-path="url(#clipPath2)"/>
      <path d="M616.4884 119.3508 L621.4884 107.3508 L616.4884 110.3508 L611.4884 107.3508 Z" clip-path="url(#clipPath2)" stroke="none"/>
      <path fill="none" d="M616.4884 435.604 L616.4884 444.7648" clip-path="url(#clipPath2)"/>
      <path d="M616.4884 452.7648 L621.4884 440.7648 L616.4884 443.7648 L611.4884 440.7648 Z" clip-path="url(#clipPath2)" stroke="none"/>
      <path fill="none" d="M616.4884 159.3547 L616.4884 168.5154" clip-path="url(#clipPath2)"/>
      <path d="M616.4884 176.5154 L621.4884 164.5154 L616.4884 167.5154 L611.4884 164.5154 Z" clip-path="url(#clipPath2)" stroke="none"/>
      <path fill="none" d="M526.4957 196.5061 L506.4884 196.5061 L506.4884 218.8107" clip-path="url(#clipPath2)"/>
      <path d="M506.4884 226.8107 L511.4884 214.8107 L506.4884 217.8107 L501.4884 214.8107 Z" clip-path="url(#clipPath2)" stroke="none"/>
      <text x="504.9345" xml:space="preserve" y="185.5459" clip-path="url(#clipPath2)" font-family="sans-serif" stroke="none">Да</text>
      <path fill="none" d="M706.4811 196.5061 L726.4884 196.5061 L726.4884 218.8107" clip-path="url(#clipPath2)"/>
      <path d="M726.4884 226.8107 L731.4884 214.8107 L726.4884 217.8107 L721.4884 214.8107 Z" clip-path="url(#clipPath2)" stroke="none"/>
      <path fill="none" d="M506.4884 266.8106 L506.4884 276.8008 L616.4884 276.8008 L616.4884 288.8106" clip-path="url(#clipPath2)"/>
      <path d="M616.4884 296.8106 L621.4884 284.8106 L616.4884 287.8106 L611.4884 284.8106 Z" clip-path="url(#clipPath2)" stroke="none"/>
      <path fill="none" d="M726.4884 266.8106 L726.4884 276.8008 L616.4884 276.8008 L616.4884 288.8106" clip-path="url(#clipPath2)"/>
      <path d="M616.4884 296.8106 L621.4884 284.8106 L616.4884 287.8106 L611.4884 284.8106 Z" clip-path="url(#clipPath2)" stroke="none"/>
      <path fill="none" d="M616.4884 376.7729 L616.4884 387.6133" clip-path="url(#clipPath2)"/>
      <path d="M616.4884 395.6133 L621.4884 383.6133 L616.4884 386.6133 L611.4884 383.6133 Z" clip-path="url(#clipPath2)" stroke="none"/>
      <path fill="none" d="M616.4884 492.7687 L616.4884 501.9294" clip-path="url(#clipPath2)"/>
      <path d="M616.4884 509.9294 L621.4884 497.9294 L616.4884 500.9294 L611.4884 497.9294 Z" clip-path="url(#clipPath2)" stroke="none"/>
      <path fill="none" stroke-dasharray="6,2" d="M706.4957 529.9201 L730.1367 529.9201" clip-path="url(#clipPath2)"/>
      <path fill="none" d="M290 508.7836 L290 518.895" clip-path="url(#clipPath2)"/>
      <path d="M290 526.895 L295 514.895 L290 517.895 L285 514.895 Z" clip-path="url(#clipPath2)" stroke="none"/>
      <path fill="none" d="M616.4884 44.0267 L616.4884 54.1704" clip-path="url(#clipPath2)"/>
      <path d="M616.4884 62.1704 L621.4884 50.1704 L616.4884 53.1704 L611.4884 50.1704 Z" clip-path="url(#clipPath2)" stroke="none"/>
    </g>
  </g>
</svg>
